barebones-pedaling
version=1
nRows=7
nColumns=49
inDegrees=yes
endheader
time	/jointset/bb/crank_angle/value	/jointset/bb/crank_angle/speed	/jointset/spindle/pedal_angle_r/value	/jointset/spindle/pedal_angle_r/speed	/jointset/ground_pelvis/pelvis_tilt/value	/jointset/ground_pelvis/pelvis_tilt/speed	/jointset/ground_pelvis/pelvis_list/value	/jointset/ground_pelvis/pelvis_list/speed	/jointset/ground_pelvis/pelvis_rotation/value	/jointset/ground_pelvis/pelvis_rotation/speed	/jointset/ground_pelvis/pelvis_tx/value	/jointset/ground_pelvis/pelvis_tx/speed	/jointset/ground_pelvis/pelvis_ty/value	/jointset/ground_pelvis/pelvis_ty/speed	/jointset/ground_pelvis/pelvis_tz/value	/jointset/ground_pelvis/pelvis_tz/speed	/jointset/hip_r/hip_angle_r/value	/jointset/hip_r/hip_angle_r/speed	/jointset/hip_r/hip_adduction_r/value	/jointset/hip_r/hip_adduction_r/speed	/jointset/hip_r/hip_rotation_r/value	/jointset/hip_r/hip_rotation_r/speed	/jointset/knee_r/knee_angle_r/value	/jointset/knee_r/knee_angle_r/speed	/jointset/knee_r/tib_tx_r/value	/jointset/knee_r/tib_tx_r/speed	/jointset/knee_r/tib_ty_r/value	/jointset/knee_r/tib_ty_r/speed	/jointset/tib_pat_r/pat_angle_r/value	/jointset/tib_pat_r/pat_angle_r/speed	/jointset/tib_pat_r/pat_tx_r/value	/jointset/tib_pat_r/pat_tx_r/speed	/jointset/tib_pat_r/pat_ty_r/value	/jointset/tib_pat_r/pat_ty_r/speed	/jointset/ankle_r/ankle_angle_r/value	/jointset/ankle_r/ankle_angle_r/speed	/jointset/subtalar_r/subtalar_angle_r/value	/jointset/subtalar_r/subtalar_angle_r/speed	/jointset/mtp_r/mtp_angle_r/value	/jointset/mtp_r/mtp_angle_r/speed	/forceset/bifemlh_r/activation	/forceset/bifemlh_r/fiber_length	/forceset/bifemsh_r/activation	/forceset/bifemsh_r/fiber_length	/forceset/glut_max2_r/activation	/forceset/glut_max2_r/fiber_length	/forceset/vas_int_r/activation	/forceset/vas_int_r/fiber_length
      2.32126995	   -569.37778399	   -933.89767591	    565.94292976	    524.74802544	     -0.00000000	     -0.00000000	     -0.00000000	      0.00000000	      0.00000000	      0.00000000	     -0.10000000	     -0.00000000	     -0.05000000	      0.00000000	      0.00000000	     -0.00000000	     40.58990524	    159.57549303	      4.38287466	     -0.52012349	      0.32267268	    -43.04277395	    -65.34064018	   -549.04655313	      0.00507572	      0.01731481	     -0.47763103	     -0.17486739	     17.48078952	      6.26579920	      0.04120139	     -0.16902185	     -0.02273436	      0.01831938	     21.74697889	    -18.38732134	     -0.00000000	      0.00000000	     -0.00000000	      0.00000000	      0.05000000	      0.10000000	      0.05000000	      0.10000000	      0.05000000	      0.10000000	      0.05000000	      0.10000000
      2.32882444	   -576.30314156	   -899.67031566	    569.90129353	    523.65775346	     -0.00000000	     -0.00000000	     -0.00000000	     -0.00000000	      0.00000000	     -0.00000000	     -0.10000000	     -0.00000000	     -0.05000000	     -0.00000000	      0.00000000	     -0.00000000	     41.83209515	    168.77050354	      4.37716331	     -0.98552393	      0.00371012	    -41.38846759	    -69.45147657	   -538.19230282	      0.00514913	      0.00225301	     -0.47895759	     -0.17581219	     17.51674087	      3.42002998	      0.03991567	     -0.17106423	     -0.02260928	      0.01449134	     21.65912974	     -5.10833143	     -0.00000000	      0.00000000	     -0.00000000	      0.00000000	      0.05000000	      0.10000000	      0.05000000	      0.10000000	      0.05000000	      0.10000000	      0.05000000	      0.10000000
      2.33800624	   -584.37668913	   -859.12654571	    574.71414523	    525.04856112	     -0.00000000	     -0.00000000	     -0.00000000	     -0.00000000	      0.00000000	      0.00000000	     -0.10000000	     -0.00000000	     -0.05000000	     -0.00000000	      0.00000000	      0.00000000	     43.41977789	    176.54939574	      4.36574865	     -1.48762409	     -0.36696782	    -39.35944204	    -74.30510832	   -518.00637056	      0.00509121	     -0.01452716	     -0.48056299	     -0.17329035	     17.53734624	      1.30579805	      0.03834168	     -0.17144529	     -0.02250570	      0.00775355	     21.67889666	      9.05044039	     -0.00000000	      0.00000000	     -0.00000000	      0.00000000	      0.05000000	      0.10000000	      0.05000000	      0.10000000	      0.05000000	      0.10000000	      0.05000000	      0.10000000
      2.34940687	   -593.89235231	   -810.53405244	    580.71999760	    528.78135980	     -0.00000000	     -0.00000000	     -0.00000000	     -0.00000000	      0.00000000	      0.00000000	     -0.10000000	      0.00000000	     -0.05000000	      0.00000000	      0.00000000	      0.00000000	     45.47083091	    182.73590321	      4.34578708	     -1.99089635	     -0.80174148	    -36.93342988	    -80.03544422	   -486.32660742	      0.00482169	     -0.03210318	     -0.48250077	     -0.16600460	     17.54582064	      0.47351034	      0.03639643	     -0.16938276	     -0.02247463	     -0.00253796	     21.86848493	     23.68534998	     -0.00000000	     -0.00000000	     -0.00000000	      0.00000000	      0.05000000	      0.10000000	      0.05000000	      0.10000000	      0.05000000	      0.10000000	      0.05000000	      0.10000000
      2.35697601	   -599.90907069	   -779.42771129	    584.73341922	    531.70732571	     -0.00000000	      0.00000000	     -0.00000000	     -0.00000000	      0.00000000	      0.00000000	     -0.10000000	      0.00000000	     -0.05000000	      0.00000000	      0.00000000	      0.00000000	     46.86449302	    185.34723076	      4.32970927	     -2.24705478	     -1.07543475	    -35.39393057	    -83.62862535	   -462.87023591	      0.00454128	     -0.04175332	     -0.48373281	     -0.15934337	     17.55015322	      0.76303815	      0.03512399	     -0.16666237	     -0.02251832	     -0.00865887	     22.07902633	     31.73485773	     -0.00000000	     -0.00000000	     -0.00000000	     -0.00000000	      0.05000000	      0.10000000	      0.05000000	      0.10000000	      0.05000000	      0.10000000	      0.05000000	      0.10000000
      2.38272550	   -618.68871150	   -681.25890198	    598.54330685	    540.22774009	     -0.00000000	      0.00000000	     -0.00000000	     -0.00000000	      0.00000000	      0.00000000	     -0.10000000	     -0.00000000	     -0.05000000	     -0.00000000	      0.00000000	      0.00000000	     51.69120782	    188.16419492	      4.26489663	     -2.67988529	     -1.92240377	    -30.44095986	    -94.45807774	   -377.54532734	      0.00314992	     -0.06344506	     -0.48748254	     -0.13087672	     17.58345100	      1.52108792	      0.03101829	     -0.15068147	     -0.02288305	     -0.01752515	     23.16389879	     50.40863155	     -0.00000000	      0.00000000	     -0.00000000	      0.00000000	      0.05000000	      0.10000000	      0.05000000	      0.10000000	      0.05000000	      0.10000000	      0.05000000	      0.10000000
      2.40847499	   -635.10214432	   -595.69637238	    612.49338065	    541.75613382	     -0.00000000	      0.00000000	     -0.00000000	     -0.00000000	      0.00000000	      0.00000000	     -0.10000000	      0.00000000	     -0.05000000	      0.00000000	      0.00000000	     -0.00000000	     56.49431955	    183.84132941	      4.19648942	     -2.55739554	     -2.64355648	    -25.55031859	   -103.08439217	   -293.33263399	      0.00141354	     -0.06901516	     -0.49045608	     -0.10024072	     17.61898989	      1.14601044	      0.02742731	     -0.12731807	     -0.02335478	     -0.01829307	     24.57605433	     57.52371560	     -0.00000000	      0.00000000	     -0.00000000	      0.00000000	      0.05000000	      0.10000000	      0.05000000	      0.10000000	      0.05000000	      0.10000000	      0.05000000	      0.10000000
